<?xml version="1.0" encoding="UTF-8"?>
<svg id="Layer_2" data-name="Layer 2" xmlns="http://www.w3.org/2000/svg" viewBox="0 0 813.88 166.2">
  <defs>
    <style>
      .cls-1 {
        fill: #21245a;
      }

      .cls-1, .cls-2 {
        stroke-width: 0px;
      }

      .cls-2 {
        fill: #f26544;
      }
    </style>
  </defs>
  <g id="Layer_1-2" data-name="Layer 1">
    <g>
      <path class="cls-1" d="M328.19,137c-1.48.83-1.91,2.09-2.63,3.07-10.41,14.14-24.44,22.32-41.73,24.56-10.66,1.38-21.02-.33-30.7-5.33-5.62-2.9-10.4-6.82-14.38-11.73-.4-.49-.77-1.02-1.1-1.56-.15-.26-.17-.6-.3-1.11,9.4-1.96,18.46-4.94,27.06-9.26,8.6-4.32,16.27-10.02,23.86-16.31,2.59,3.48,4.96,6.67,7.33,9.87,1.14,1.54,2.22,3.13,3.41,4.63,1.42,1.78,3.07,1.44,3.87-.78.22-.6.32-1.24.49-1.85,4.26-15.22,8.52-30.43,12.77-45.65.21-.76.39-1.54.49-2.32.06-.5-.26-.92-.77-1.01-.62-.11-1.27-.14-1.9-.14-16.14,0-32.29-.01-48.43,0-.63,0-1.27.1-1.88.22-.59.12-.74.73-.6,1.11.32.88.75,1.75,1.28,2.52,1.91,2.75,3.88,5.47,5.85,8.19.67.92.67,1.73-.13,2.54-.56.57-1.12,1.14-1.69,1.7-10.83,10.72-23.39,18.74-37.72,23.94-.58.21-1.19.31-2.05.53-.87-2.38-.97-4.74-1.02-7.1-.24-11.02,2.02-21.6,5.85-31.85,3.96-10.61,9.79-20.09,17.95-28.02,14.68-14.27,32.28-20.8,52.7-19.43,6.92.47,13.53,2.34,19.62,5.74,7.86,4.38,13.42,10.71,16.08,19.42.18.61.44,1.19.68,1.77.05.13.21.21.34.33,1.04.17.77-.72.85-1.19,1.3-7.07,2.56-14.14,3.84-21.21.44-2.44.62-2.65,3.08-2.66,9.91-.03,19.82-.01,29.73-.01.32,0,.64,0,.96.06.92.14,1.43.62,1.26,1.61-.92,5.35-1.83,10.7-2.76,16.05-3.11,17.77-6.23,35.54-9.35,53.31-2.9,16.51-5.79,33.03-8.7,49.54-.14.78-.36,1.56-.59,2.32-.2.66-.66,1.07-1.37,1.12-.64.05-1.28.05-1.92.05-9.27,0-18.54,0-27.81,0-.32,0-.64,0-.96,0-2.27-.08-2.54-.36-2.18-2.5.97-5.83,2-11.64,2.95-17.48.29-1.78.8-3.58.36-5.68Z"/>
      <path class="cls-1" d="M31.61,112.89c.06.68.17,1.46.2,2.24.4,11.24,5.77,18.69,16.45,22.13,10.76,3.46,21.22,2.19,30.95-3.42,7.48-4.32,11.27-11.08,11.27-19.83,0-4.82-2.04-8.61-5.81-11.53-2.82-2.18-6.04-3.58-9.4-4.64-4.58-1.45-9.27-2.37-14.03-3.01-8.4-1.13-16.69-2.78-24.66-5.75-4.66-1.73-9.1-3.89-13.16-6.77-9.56-6.8-14.34-16.02-14.16-27.8.17-11.1,3.7-20.98,10.59-29.66,3.81-4.8,8.26-8.94,13.45-12.18C53.01.36,74.17-3.09,96.7,2.8c6.39,1.67,12.29,4.52,17.56,8.53,13.03,9.91,17.81,23.25,16.21,39.22-.11,1.1-.63,1.76-1.78,1.82-.48.02-.96.04-1.44.04-8.79,0-17.58,0-26.37,0-.48,0-.96-.05-1.43-.1-.75-.09-1.11-.6-1.14-1.29-.08-1.59-.04-3.19-.16-4.78-.61-7.71-4.6-13.12-11.51-16.39-4.71-2.22-9.77-3.02-14.92-2.91-7.36.16-14.2,2.12-20.11,6.68-5.03,3.88-8.15,8.91-8.81,15.33-.44,4.25.81,7.87,3.9,10.84,2.59,2.49,5.72,4.05,9.03,5.29,5.26,1.96,10.74,3.03,16.27,3.88,8.06,1.24,16.01,2.95,23.69,5.75,4.97,1.81,9.73,4.05,14.04,7.15,9.35,6.7,14.23,15.73,14.21,27.32-.04,19.61-8.22,34.78-24.8,45.32-8.61,5.47-18.1,8.64-28.11,10.39-8.08,1.42-16.22,1.64-24.36.92-8.68-.77-16.97-3.05-24.56-7.44C7.63,149.98,0,137.47.02,120.65c0-9.97-.82-8.13,8.04-8.27,6.55-.1,13.11-.04,19.66-.01,1.25,0,2.56-.29,3.9.52Z"/>
      <path class="cls-2" d="M784.79,64.91c.7-1.83.41-3.43.41-5,.02-17.43.01-34.85.02-52.28,0-1.12-.02-2.24,0-3.36.07-3.09.15-3.22,3.31-3.23,7.67-.03,15.35-.02,23.02.02,1.82.01,2.18.46,2.29,2.29.03.48.02.96.02,1.44,0,.64,0,1.28,0,1.92,0,50.04,0,100.08,0,150.12,0,6.16.64,5.73-5.61,5.74-6.08,0-12.15,0-18.23,0-.96,0-1.92,0-2.88-.06-1.09-.07-1.8-.65-1.86-1.78-.07-1.28-.06-2.56-.07-3.83,0-6.07.01-12.15-.02-18.22,0-1.02.35-2.16-.48-3.05-1.09.2-1.22,1.08-1.57,1.73-7.83,14.67-20.23,23.31-36.27,26.49-23.79,4.72-49.31-5.57-62.74-28.24-7.59-12.81-10.27-26.71-9.02-41.46.55-6.55,1.66-13,3.91-19.2,7.63-20.97,22.22-33.93,44.33-37.82,14.79-2.6,28.97-.65,42.04,7.24,7.27,4.39,13.02,10.26,17.17,17.69.52.93.74,2.1,2.22,2.86ZM742.18,60.01c-.63.03-2.23.06-3.82.2-16.1,1.44-28.02,11.66-32.43,25.24-1.14,3.52-1.87,7.13-2.18,10.77-1.06,12.56,2.07,23.87,11.19,32.89,10.01,9.9,22.15,13.51,36.04,10.98,11.07-2.01,19.87-7.66,26.29-16.89,5.84-8.39,7.66-17.84,6.52-27.84-1.03-9.13-4.4-17.32-11.09-23.86-8.2-8.02-18.17-11.59-30.51-11.5Z"/>
      <path class="cls-2" d="M532.05,99.95c.2-9.22,1.84-18.13,5.64-26.55,7.45-16.53,20.11-27.48,37.13-33.12,19.01-6.3,38.12-6,56.66,1.82,21.61,9.12,34.09,25.56,37.48,48.85,1.33,9.15.84,18.19-1.57,27.07-4.59,16.91-14.73,29.58-30.03,38-21.17,11.65-50.3,12.27-72.22.07-18.01-10.02-28.88-25.24-32.24-45.64-.57-3.45-.58-7-.84-10.5ZM561.02,99.41c-.16,11.79,3.24,21.37,10.71,29.29,8.5,9.02,19.11,13.1,31.46,12.25,14.83-1.02,26.05-7.99,33.04-21.19,4.32-8.15,5.36-16.95,3.87-26.05-2.14-13.14-8.88-23.07-20.69-29.37-7.27-3.88-15.13-4.87-23.23-4.15-10.15.9-18.7,5.12-25.41,12.8-6.83,7.8-9.71,17.08-9.75,26.41Z"/>
      <path class="cls-2" d="M530.35,72.53c-.76,1.13-1.6,1.21-2.33,1.48-7.19,2.66-14.37,5.32-21.57,7.94-2.15.78-2.38.67-3.53-1.13-.34-.54-.62-1.12-.97-1.66-7.59-11.89-18.43-18.31-32.51-19.08-11.99-.65-22.33,3.24-30.69,11.93-6.08,6.32-9.47,14.04-10.53,22.65-1.51,12.29,1.13,23.58,9.44,33.07,7.17,8.2,16.32,12.76,27.24,13.22,16.66.7,29.3-6.29,37.96-20.52.33-.55.66-1.1.97-1.66.46-.83,1.18-1,2.03-.81.31.07.61.18.91.29,7.16,2.73,14.32,5.46,21.48,8.19.45.17.9.33,1.32.57.79.45,1.08,1.06.63,1.97-3.27,6.68-7.66,12.54-13.14,17.56-10.69,9.8-23.32,15.41-37.64,17.49-13.23,1.93-26.15.86-38.65-3.92-17.59-6.73-30.73-18.44-37.35-36.24-7.37-19.81-5.86-39.3,4.96-57.65,7.54-12.78,18.92-21.17,32.84-25.83,19.19-6.42,38.39-6.03,57.13,1.82,13.54,5.67,24.17,14.81,30.99,28.03.36.7.64,1.44,1.01,2.27Z"/>
      <path class="cls-1" d="M200.94,1.46c1.07-.09,2.02-.23,2.96-.24,9.27-.02,18.54-.02,27.81-.01.8,0,1.61-.02,2.39.09.7.1,1.12.63,1.08,1.33-.05.95-.17,1.91-.34,2.85-5.6,31.76-11.22,63.52-16.82,95.28-1.39,7.86-2.71,15.73-4.08,23.6-.41,2.35-.71,2.65-3.02,2.98-10.02,1.43-20.05,1.67-30.09.17-1.98-.3-2.16-.5-1.82-2.46,2.22-12.74,4.46-25.48,6.7-38.21,2.71-15.41,5.42-30.82,8.13-46.23,2.04-11.64,4.06-23.28,6.11-34.92.25-1.4.64-2.77.99-4.23Z"/>
      <path class="cls-1" d="M146.08,116.75c-.4,1.45.63,1.92,1.2,2.54,4.57,4.95,9.79,9.17,15.19,13.17,3.95,2.92,3.74,1.94,2.78,6.98-1.43,7.53-2.68,15.1-3.98,22.66-.19,1.13-.76,1.68-1.88,1.7-1.28.01-2.56.03-3.84.03-8.47,0-16.95,0-25.42,0-3.88,0-3.96.31-3.26-4.06.63-3.94,1.38-7.87,2.07-11.8,3.12-17.78,6.25-35.56,9.37-53.33,2.93-16.68,5.85-33.36,8.78-50.03.19-1.1.48-2.19.67-3.29.17-.95.76-1.33,1.65-1.36.8-.02,1.6-.03,2.4-.03,9.11,0,18.23,0,27.34,0,.95,0,1.9.09,2.79.14.86,1.32.34,2.6.13,3.81-4.42,25.33-8.87,50.66-13.32,75.99-.17.94-.38,1.88-.6,2.81-.44,1.9-.74,2.12-2.58,1.55-5.5-1.68-10.88-3.7-16.08-6.17-1.09-.52-2.14-1.32-3.42-1.32Z"/>
      <path class="cls-1" d="M167.15,28.65c-3.46.09-6.86-.67-9.99-2.41-5.69-3.15-7.45-8.8-4.74-14.73,1.09-2.38,2.72-4.35,4.83-5.83,6.64-4.69,13.92-6.13,21.8-3.91,1.36.38,2.7,1,3.91,1.73,5.39,3.22,7.01,8.71,4.36,14.45-1.24,2.69-3.18,4.77-5.61,6.4-4.36,2.92-9.18,4.38-14.57,4.31Z"/>
      <path class="cls-1" d="M206.81,162.4c-.57.08-1.19.23-1.82.23-10.07.01-20.14.02-30.21,0-1.91,0-2.3-.41-2-2.24,1-5.98,2.06-11.96,3.13-17.93.21-1.18.82-1.46,2.07-.92,9.53,4.1,19.48,6.04,29.84,6.04.45,0,.91.16,1.35.25.14,4.02-.75,9.55-2.36,14.58Z"/>
    </g>
  </g>
</svg>