<?xml version="1.0" encoding="UTF-8"?>
<svg id="Layer_2" data-name="Layer 2" xmlns="http://www.w3.org/2000/svg" viewBox="0 0 516.18 719.35">
  <defs>
    <style>
      .cls-1 {
        fill: #282b6d;
        stroke-width: 0px;
      }
    </style>
  </defs>
  <g id="Layer_1-2" data-name="Layer 1">
    <path class="cls-1" d="M512.76,156c-7.9-40.28-26.44-74.84-56.27-103.04C422.32,20.64,381.45,3.27,334.55.33c-18.94-1.19-37.64.87-56.09,5.41-56.9,13.99-106.36,55.18-130.19,108.68-13.4,30.08-17.96,61.48-13.45,94.12,2.3,16.62,4.83,33.2,7.22,49.81,2.09,14.55,4.08,29.11,6.17,43.66,2.38,16.61,4.89,33.19,7.19,49.81.5,3.62,1.51,7.21,1.25,10.92,1.21,3.35,1.27,6.91,1.78,10.37,2.74,18.65,5.34,37.31,7.98,55.97.04.32.11.63.19.94.2.82.88,1,1.46.69,1.26-.68,2.44-1.5,3.64-2.3,25.27-16.81,50.53-33.63,75.81-50.44,1.29-.85,2.46-1.95,3.88-2.3.82.49.94,1.13,1.06,1.75,4.22,21.63,8.43,43.26,12.65,64.88,4.28,21.94,8.57,43.88,12.86,65.82.83,4.23,1.71,8.45,2.49,12.69,2.22,12.03,1.32,23.86-2.52,35.46-5.6,16.89-15.81,30.55-29.64,41.53-18.98,15.07-40.66,22.02-64.79,19.88-25.42-2.25-46.29-13.7-62.43-33.49-11.52-14.12-18.25-30.35-19.83-48.51-1.77-20.42,3.07-39.32,14.11-56.6,4.5-7.04,9.88-13.35,16.06-18.97.83-.75,1.64-1.53,2.51-2.23.98-.79,1.25-1.73,1.06-2.96-.51-3.32-.91-6.65-1.4-9.97-2.09-14.06-4.23-28.11-6.28-42.18-1.06-7.26-2-14.54-2.99-21.81-.72-4.41-1.49-8.81-2.16-13.22-1.09-7.26-2.1-14.54-3.2-21.8-.17-1.15-.21-2.44-1.16-3.54-.76.5-1.31.81-1.8,1.18-5.3,4.11-10.61,8.21-15.89,12.35-10.31,8.08-20.89,15.83-30.84,24.33-32.82,28.05-54.4,63.08-64.37,105.19-1.58,6.69-2.38,13.51-3.79,20.22.13,1.64.18,3.27-.6,4.8.28,1.3.1,2.58-.28,3.83-.02,2.23.01,4.47-.07,6.7-.78,19.96,1.45,39.56,6.93,58.78,21.63,75.92,86.96,130.93,166.2,138.68,20.84,2.04,41.47.42,61.86-4.47,56.03-13.44,103.93-52,128.91-103.91,9.22-19.17,15.11-39.29,17.4-60.46,1.31-12.13,1.58-24.28.26-36.37-1.52-13.81-3.72-27.54-5.68-41.3-2.08-14.55-4.24-29.08-6.36-43.62-1.78-12.17-3.57-24.34-5.32-36.51-.75-5.21-1.4-10.43-2.09-15.65-1.03-6.63-2.12-13.24-3.09-19.88-1.76-12.01-3.44-24.04-5.19-36.05-1.43-9.8-2.9-19.6-4.35-29.4-.05-.32-.06-.64-.12-.95-.26-1.46-.97-1.75-2.31-.84-1.45.99-2.86,2.04-4.29,3.06-26.65,19.05-53.3,38.1-79.96,57.15-1.29.92-2.59,1.82-3.84,2.69-1.4-.73-1.26-1.97-1.41-2.98-2.03-13.43-4-26.86-6.01-40.29-1.79-12.01-3.61-24.01-5.4-36.02-1.74-11.69-3.46-23.39-5.2-35.08-1.71-11.54-3.18-23.12-5.21-34.6-4.36-24.69,1.81-46.64,17.07-66.1,13.46-17.16,30.83-28.5,52.26-33.38,37.59-8.55,75.23,7.8,95.35,39.02,11.79,18.29,16.59,38.32,14,59.9-2.41,20-10.98,37.23-24.93,51.75-2.21,2.3-4.56,4.48-6.98,6.57-1.24,1.08-1.62,2.22-1.38,3.78.77,5.05,1.48,10.12,2.22,15.18,1.82,12.49,3.63,24.98,5.45,37.47,1.75,12.01,3.51,24.03,5.27,36.04.28,1.89.7,3.77.47,5.71,1.42,5.83,2.06,11.79,2.7,17.74q.89,1.03,2.01-.14c.03-.27.18-.38.45-.31.67-.08,1.15-.42,1.41-1.05.2-.57.62-.86,1.2-.95.26-.22.52-.44.78-.65,0,0,.1-.26.1-.26h.28c.2-.05.35-.16.45-.35.89-1.1,1.94-1.98,3.26-2.54.25-.2.49-.41.74-.62,0,0,.12-.27.12-.27l.3-.02c.66-.08,1.15-.41,1.41-1.04.21-.57.63-.86,1.21-.96.26-.21.51-.43.77-.65,0,0,.11-.26.11-.26h.29c.19-.05.33-.15.42-.32.89-1.11,1.96-2,3.28-2.56.24-.2.48-.4.72-.61.03-.27.17-.37.44-.31.66-.08,1.14-.41,1.4-1.04.21-.57.63-.86,1.21-.96.26-.22.52-.43.77-.65,0,0,.11-.27.11-.27h.29c.18-.05.31-.14.4-.3,2.13-2.11,4.46-3.99,7.06-5.5.25-.21.51-.42.76-.64-.12,0-.22,0-.31.02.09-.02.19-.03.31-.02,0,0,.13-.27.13-.27l.3-.02s.37-.26.37-.26c2.13-2.13,4.47-4,7.08-5.52.26-.21.51-.43.77-.64,0,0,.1-.26.1-.26h.28c.69-.09,1.19-.42,1.45-1.08,2.09-2.2,4.48-4.03,7-5.7.26-.23.51-.45.77-.68,0,0,.05-.24.05-.24h.25c.27-.09.46-.26.58-.52h0c4.41-4.28,8.86-8.52,13.23-12.84,2.57-2.55,5.01-5.23,7.51-7.86.24-.11.4-.3.48-.54,0,0,0-.25,0-.25l.24-.05c.23-.27.47-.53.7-.8,1.94-2.87,4.06-5.6,6.5-8.06,0,0,.23-.36.23-.36,0,0,0-.28,0-.28l.26-.1c.23-.28.45-.56.68-.84.27-.94.84-1.66,1.64-2.22.17-.12.27-.28.32-.48,0,0-.04-.24-.04-.24l.23-.07h0c.24-.3.47-.61.71-.91,0,0,.06-.09.06-.09.6-.32.92-.82,1.01-1.49,0,0-.02-.27-.02-.27l.24-.11c.22-.29.44-.58.66-.88,0,0,.07-.12.07-.12.26-.37.52-.73.78-1.1.16-.29.32-.58.48-.87-.01-.11-.01-.21,0-.3-.02.09-.02.19,0,.3.2-.26.4-.53.6-.79,0,0,.07-.12.07-.12.58-.34.89-.86.97-1.52,0,0-.03-.26-.03-.26l.23-.11c.22-.31.44-.61.66-.92h0c.06-.88.6-1.46,1.19-2.02.23-.33.45-.66.68-.98.16-.32.32-.64.48-.96h0c.18-.26.37-.52.55-.79-.1.03-.19.06-.27.11.08-.04.17-.08.27-.11.03-.88.57-1.48,1.14-2.06.23-.35.46-.7.68-1.05.13-.29.26-.59.39-.88.2-.31.41-.62.61-.93.15-.33.3-.67.44-1,.18-.28.37-.56.55-.83,1.42-3.72,3.37-7.18,5.23-10.68.17-.29.34-.58.51-.87-.1.04-.19.08-.27.14-.15.11-.25.25-.27.43.02-.18.12-.32.27-.43.08-.05.17-.1.27-.14.12-.34.24-.69.36-1.03.19-.33.38-.66.56-.99.1-.3.2-.61.3-.91.54-.42.77-.99.77-1.66.17-.43.34-.86.51-1.29.25-.21.38-.48.4-.8.11-.35.21-.71.32-1.06.18-.36.37-.72.55-1.07-.02-.71.13-1.35.66-1.87.25-.22.37-.5.38-.83.09-.34.18-.68.28-1.02h0c.19-.4.38-.8.56-1.2h0c.16-.56.32-1.13.48-1.69.17-.37.34-.73.52-1.1.16-.59.32-1.19.48-1.78-.04-.12-.05-.24-.04-.34,0,.1,0,.22.04.34.16-.35.33-.7.49-1.05-.11.06-.2.12-.28.19.08-.07.17-.13.28-.19.15-.61.3-1.21.45-1.82.16-.37.33-.74.49-1.11,1.72-6.97,3.44-13.93,5.16-20.9.81-5.85,1.8-11.68,2.38-17.55,1.79-18.09,1.01-36.08-2.5-53.93Z"/>
  </g>
</svg>