<?xml version="1.0" encoding="UTF-8"?>
<svg xmlns="http://www.w3.org/2000/svg" viewBox="0 0 344.4 423.1">
  <defs>
    <style>
      .cls-1 {
        fill: #2c2f74;
      }
      .cls-1, .cls-2 {
        stroke-width: 0px;
      }
      .cls-2 {
        fill: #f26342;
      }
    </style>
  </defs>
  <g>
    <path class="cls-1" d="M200.88,308.73c-9.24,12.68-20.19,29.56-29.55,42.15-10.23,13.76-20.43,27.55-31.02,41.03-26.92,34.27-74.07,41.25-107.86,16.18-35.47-26.31-42.72-72.77-17.48-109.28,14.57-21.09,28.79-42.92,44.82-62.39,15.81-19.2,40.85-34.6,71.18-32.54,36.16,2.45,58.47,32.41,62.82,38.51.02,1.89-.13,8.32-4.81,14.19-4.1,5.14-10.29,8.02-16.05,8.24-6.95.27-13.85-3.43-19.98-10.47-14.68-16.87-41.14-18.1-56.58-1.06-20.05,22.12-37.89,46.26-53.58,71.57-16.2,26.12,4.13,61.6,35.69,60.45,13.98-.51,24.88-8.46,34.98-19.62,13.44-14.86,22.57-27.36,33.47-44.7,2.53-4.02,4.3-4.79,10.42-4.62,13.56.37,28.51-2.03,43.54-7.64Z"/>
    <path class="cls-2" d="M299.35,88.93l29.85,23.09L344.4,0l-104.62,42.85,29.32,22.68c-6.82,8.84-13.64,17.68-20.46,26.52-1,1.64-2.88,4.18-6.01,5.46-4.25,1.75-8.53.17-9.87-.17-33.34-8.48-61.4.95-82.59,27.99-14.21,18.14-36.04,42.38-57.52,76.91.95-.31,2.23-.71,3.75-1.13,0,0,4.68-1.32,9.26-2.17,5.54-1.03,12.28-1.19,20.44-1.57,3.25-.15,6.12-.28,8.42-.39,2.48-.11,4.75-1.42,6.06-3.53,3.6-5.83,8.65-13.48,15.19-21.98,14.09-18.32,21.14-27.48,33.03-32.71,5.34-2.35,27.95-11.04,45.58,1.89,12.47,9.15,16.98,24.97,15.67,37.34-.23,2.18-.53,3.69-.98,5.75-3.35,15.13-11.06,27.05-28.44,49.04-11.49,14.54-17.33,21.88-21.79,25.34-8.22,6.38-20.45,15.86-35.42,14.19-8.64-.97-22.04-6.49-28.57-13.78-5.3-5.92-9.31-8.58-15.12-9.14-11.52-1.11-20.95,11.7-22.95,13.52.23,1.85.78,5.87,2.7,10.68,9.26,23.26,36.93,31,42.12,32.45,26.47,7.4,49.19-2.4,55.54-5.15.81-.35,1.41-.62,1.72-.76,18.6-8.51,30.41-22.03,53.04-51.64,21.52-28.16,28.04-38.85,33.33-54.72,2.82-8.47,2.79-16.57,2.84-17.44.79-14.03-2.21-24.84-3.74-29.6-2.13-6.63-4.76-11.85-6.84-15.48-.6-1.04-1.73-3.35-1.95-6.54-.2-2.95-.5-3.86,1.12-6.96,7.57-9.6,15.15-19.2,22.72-28.81Z"/>
  </g>
</svg>
