<?xml version="1.0" encoding="UTF-8"?>
<svg id="Layer_2" data-name="Layer 2" xmlns="http://www.w3.org/2000/svg" viewBox="0 0 94.12 74.53">
  <defs>
    <style>
      .cls-1 {
        fill: #2c2f74;
      }

      .cls-1, .cls-2 {
        stroke-width: 0px;
      }

      .cls-2 {
        fill: #f26342;
      }
    </style>
  </defs>
  <g id="Layer_1-2" data-name="Layer 1">
    <path class="cls-1" d="M52.73,40.02c-1.2,1.64-2.62,3.83-3.83,5.46-1.33,1.78-2.65,3.57-4.02,5.32-3.49,4.44-9.6,5.35-13.98,2.1-4.6-3.41-5.54-9.43-2.27-14.17,1.89-2.73,3.73-5.56,5.81-8.09,2.05-2.49,5.3-4.49,9.23-4.22,4.69.32,7.58,4.2,8.14,4.99,0,.24-.02,1.08-.62,1.84-.53.67-1.33,1.04-2.08,1.07-.9.03-1.8-.44-2.59-1.36-1.9-2.19-5.33-2.35-7.34-.14-2.6,2.87-4.91,6-6.95,9.28-2.1,3.39.53,7.99,4.63,7.84,1.81-.07,3.22-1.1,4.53-2.54,1.74-1.93,2.93-3.55,4.34-5.79.33-.52.56-.62,1.35-.6,1.76.05,3.7-.26,5.65-.99Z"/>
    <path class="cls-1" d="M5.71,74.29c-1.12,0-2.2-.15-3.22-.45-1.03-.3-1.86-.69-2.48-1.17l1.1-2.44c.6.43,1.31.78,2.13,1.05.82.27,1.65.41,2.49.41.64,0,1.16-.06,1.55-.19s.68-.3.87-.53c.19-.23.28-.49.28-.78,0-.37-.15-.67-.44-.89s-.68-.4-1.16-.54c-.48-.14-1.01-.27-1.59-.4-.58-.13-1.16-.28-1.74-.47-.58-.19-1.11-.43-1.59-.72-.48-.29-.87-.68-1.17-1.16-.3-.48-.45-1.09-.45-1.84,0-.8.22-1.53.65-2.19s1.09-1.19,1.96-1.58c.88-.39,1.97-.59,3.29-.59.88,0,1.75.1,2.6.31.85.21,1.61.52,2.26.93l-1,2.46c-.65-.37-1.31-.65-1.96-.83s-1.3-.27-1.92-.27-1.14.07-1.54.22c-.4.15-.69.34-.86.57-.17.23-.26.5-.26.81,0,.36.15.65.44.87.29.22.68.4,1.16.53.48.13,1.01.27,1.59.4.58.13,1.16.29,1.74.46.58.17,1.11.41,1.59.7.48.29.87.68,1.17,1.16.3.48.45,1.09.45,1.82,0,.79-.22,1.51-.66,2.16s-1.1,1.18-1.97,1.58c-.88.4-1.98.6-3.32.6Z"/>
    <path class="cls-1" d="M13.88,74.05v-14.02h3.25v14.02h-3.25Z"/>
    <path class="cls-1" d="M20.45,74.05v-14.02h3.25v11.38h7.03v2.64h-10.28Z"/>
    <path class="cls-1" d="M45.15,74.05h3.41l-6.27-14.02h-3.21l-6.25,14.02h3.33l1.25-3h6.5l1.24,3ZM38.43,68.58l2.23-5.37,2.22,5.37h-4.45Z"/>
    <g>
      <path class="cls-2" d="M55.95,74.53c-1.08,0-2.09-.18-3.01-.53-.93-.35-1.73-.86-2.41-1.51-.68-.65-1.21-1.42-1.59-2.3-.38-.88-.57-1.85-.57-2.9s.19-2.02.57-2.9c.38-.88.91-1.65,1.6-2.3.69-.65,1.49-1.16,2.41-1.51.92-.35,1.93-.53,3.02-.53,1.21,0,2.31.21,3.29.63.98.42,1.81,1.04,2.47,1.85l-2.08,1.92c-.48-.55-1.01-.96-1.6-1.23-.59-.27-1.23-.41-1.92-.41-.65,0-1.25.11-1.8.32-.55.21-1.02.52-1.42.92-.4.4-.71.87-.93,1.42-.22.55-.33,1.16-.33,1.82s.11,1.28.33,1.82c.22.55.53,1.02.93,1.42.4.4.87.71,1.42.92.55.21,1.15.32,1.8.32.69,0,1.33-.14,1.92-.41.59-.27,1.12-.69,1.6-1.25l2.08,1.92c-.67.81-1.49,1.44-2.47,1.86-.98.43-2.09.64-3.31.64Z"/>
      <path class="cls-2" d="M69.93,74.53c-1.11,0-2.13-.18-3.07-.54-.94-.36-1.76-.87-2.44-1.52s-1.22-1.42-1.6-2.3c-.38-.88-.57-1.84-.57-2.88s.19-2,.57-2.88c.38-.88.92-1.65,1.61-2.3.69-.65,1.51-1.16,2.44-1.52.93-.36,1.95-.54,3.04-.54s2.13.18,3.05.54c.93.36,1.74.87,2.42,1.52.69.65,1.23,1.42,1.61,2.29.39.88.58,1.84.58,2.89s-.19,2.01-.58,2.89c-.39.89-.92,1.66-1.61,2.3-.69.65-1.5,1.15-2.42,1.51-.93.36-1.94.54-3.04.54ZM69.91,71.77c.63,0,1.21-.11,1.73-.32.53-.21.99-.52,1.39-.92.4-.4.71-.87.93-1.42.22-.55.33-1.15.33-1.82s-.11-1.27-.33-1.82c-.22-.55-.53-1.02-.92-1.42-.39-.4-.86-.71-1.39-.92-.53-.21-1.12-.32-1.74-.32s-1.21.11-1.73.32c-.53.21-.99.52-1.39.92-.4.4-.71.87-.93,1.42-.22.55-.33,1.16-.33,1.82s.11,1.26.33,1.81c.22.55.53,1.03.92,1.43.39.4.86.71,1.39.92.53.21,1.12.32,1.74.32Z"/>
      <path class="cls-2" d="M80.02,74.29v-14.02h6.37c1.52,0,2.86.29,4.03.87,1.16.58,2.07,1.39,2.72,2.43s.98,2.28.98,3.71-.33,2.65-.98,3.7-1.56,1.86-2.72,2.44c-1.16.58-2.5.87-4.03.87h-6.37ZM83.27,71.63h2.96c.93,0,1.75-.18,2.43-.53.69-.35,1.22-.86,1.6-1.51s.57-1.42.57-2.3-.19-1.67-.57-2.31c-.38-.65-.92-1.15-1.6-1.5-.69-.35-1.5-.53-2.43-.53h-2.96v8.69Z"/>
    </g>
    <path class="cls-2" d="M65.5,11.53l3.87,2.99,1.97-14.52-13.56,5.56,3.8,2.94c-.88,1.15-1.77,2.29-2.65,3.44-.13.21-.37.54-.78.71-.55.23-1.11.02-1.28-.02-4.32-1.1-7.96.12-10.71,3.63-1.84,2.35-4.67,5.49-7.46,9.97.12-.04.29-.09.49-.15,0,0,.61-.17,1.2-.28.72-.13,1.59-.15,2.65-.2.42-.02.79-.04,1.09-.05.32-.01.62-.18.79-.46.47-.76,1.12-1.75,1.97-2.85,1.83-2.37,2.74-3.56,4.28-4.24.69-.3,3.62-1.43,5.91.24,1.62,1.19,2.2,3.24,2.03,4.84-.03.28-.07.48-.13.75-.43,1.96-1.43,3.51-3.69,6.36-1.49,1.88-2.25,2.84-2.82,3.28-1.07.83-2.65,2.06-4.59,1.84-1.12-.13-2.86-.84-3.7-1.79-.69-.77-1.21-1.11-1.96-1.19-1.49-.14-2.72,1.52-2.98,1.75.03.24.1.76.35,1.38,1.2,3.02,4.79,4.02,5.46,4.21,3.43.96,6.38-.31,7.2-.67.1-.05.18-.08.22-.1,2.41-1.1,3.94-2.86,6.88-6.69,2.79-3.65,3.64-5.04,4.32-7.09.37-1.1.36-2.15.37-2.26.1-1.82-.29-3.22-.49-3.84-.28-.86-.62-1.54-.89-2.01-.08-.13-.22-.43-.25-.85-.03-.38-.06-.5.14-.9.98-1.24,1.96-2.49,2.95-3.73Z"/>
  </g>
</svg>