<?xml version="1.0" encoding="UTF-8"?>
<svg id="Layer_2" data-name="Layer 2" xmlns="http://www.w3.org/2000/svg" viewBox="0 0 726.04 113.72">
  <defs>
    <style>
      .cls-1 {
        fill: #2c2f74;
      }

      .cls-1, .cls-2 {
        stroke-width: 0px;
      }

      .cls-2 {
        fill: #f26342;
      }
    </style>
  </defs>
  <g id="Layer_1-2" data-name="Layer 1">
    <path class="cls-1" d="M44.04,111.86c-8.66,0-16.95-1.16-24.87-3.48-7.93-2.32-14.32-5.33-19.16-9.04l8.5-18.85c4.64,3.3,10.12,6,16.46,8.11,6.34,2.11,12.75,3.17,19.23,3.17,4.95,0,8.94-.49,11.98-1.47,3.04-.98,5.28-2.34,6.72-4.09,1.45-1.75,2.16-3.76,2.16-6.03,0-2.89-1.13-5.18-3.4-6.88s-5.25-3.09-8.96-4.17c-3.71-1.08-7.8-2.11-12.29-3.09-4.48-.98-8.96-2.19-13.44-3.63-4.48-1.44-8.58-3.3-12.29-5.56-3.71-2.26-6.72-5.25-9.04-8.96-2.32-3.71-3.48-8.44-3.48-14.21,0-6.18,1.68-11.82,5.02-16.92,3.34-5.1,8.39-9.17,15.14-12.21C29.08,1.52,37.55,0,47.74,0c6.8,0,13.49.8,20.09,2.4,6.59,1.6,12.41,3.99,17.45,7.19l-7.72,19c-5.05-2.88-10.09-5.02-15.14-6.41s-10-2.09-14.83-2.09-8.81.57-11.9,1.7c-3.09,1.14-5.3,2.6-6.64,4.4-1.33,1.8-2,3.89-2,6.26,0,2.78,1.13,5.02,3.4,6.72,2.27,1.7,5.25,3.07,8.96,4.09,3.71,1.03,7.8,2.06,12.28,3.09,4.48,1.03,8.96,2.21,13.45,3.55,4.48,1.34,8.57,3.14,12.28,5.41,3.71,2.27,6.73,5.25,9.04,8.96,2.32,3.71,3.48,8.4,3.48,14.06,0,6.08-1.7,11.64-5.1,16.69-3.4,5.05-8.47,9.11-15.22,12.21-6.75,3.09-15.28,4.63-25.57,4.63Z"/>
    <path class="cls-1" d="M107.07,110.01V1.85h25.03v108.16h-25.03Z"/>
    <path class="cls-1" d="M157.74,110.01V1.85h25.03v87.76h54.24v20.4h-79.27Z"/>
    <path class="cls-1" d="M348.27,110.01h26.27L326.17,1.85h-24.72l-48.21,108.16h25.65l9.64-23.17h50.14l9.6,23.17ZM296.43,67.83l17.21-41.39,17.15,41.39h-34.36Z"/>
    <g>
      <path class="cls-2" d="M431.56,113.72c-8.35,0-16.1-1.37-23.25-4.09-7.16-2.73-13.36-6.62-18.62-11.66-5.25-5.05-9.35-10.97-12.28-17.77-2.94-6.8-4.41-14.26-4.41-22.4s1.47-15.6,4.41-22.4c2.93-6.8,7.05-12.72,12.35-17.77,5.3-5.04,11.51-8.93,18.62-11.66,7.1-2.73,14.88-4.09,23.33-4.09,9.37,0,17.85,1.62,25.42,4.87,7.57,3.25,13.93,8.01,19.08,14.29l-16.07,14.83c-3.71-4.22-7.83-7.39-12.36-9.5-4.53-2.11-9.48-3.17-14.83-3.17-5.05,0-9.68.82-13.91,2.47-4.23,1.65-7.88,4.01-10.97,7.11-3.09,3.09-5.48,6.75-7.19,10.97-1.69,4.23-2.55,8.91-2.55,14.06s.85,9.84,2.55,14.06c1.7,4.23,4.1,7.88,7.19,10.97,3.09,3.09,6.74,5.46,10.97,7.11,4.23,1.65,8.86,2.47,13.91,2.47,5.36,0,10.3-1.05,14.83-3.17,4.53-2.11,8.66-5.33,12.36-9.66l16.07,14.83c-5.15,6.29-11.51,11.08-19.08,14.37-7.57,3.29-16.09,4.94-25.57,4.94Z"/>
      <path class="cls-2" d="M539.4,113.72c-8.55,0-16.45-1.39-23.71-4.17-7.26-2.78-13.55-6.7-18.85-11.74-5.3-5.05-9.42-10.97-12.35-17.77-2.94-6.8-4.41-14.21-4.41-22.25s1.47-15.45,4.41-22.25c2.93-6.8,7.07-12.72,12.44-17.77,5.35-5.04,11.64-8.96,18.85-11.74,7.21-2.78,15.04-4.17,23.49-4.17s16.4,1.39,23.56,4.17c7.16,2.78,13.39,6.7,18.69,11.74,5.31,5.05,9.45,10.95,12.44,17.69,2.98,6.75,4.47,14.19,4.47,22.33s-1.49,15.48-4.47,22.33c-2.99,6.85-7.13,12.77-12.44,17.77-5.3,5-11.53,8.88-18.69,11.67-7.16,2.78-14.97,4.17-23.41,4.17ZM539.25,92.4c4.84,0,9.3-.82,13.36-2.47,4.07-1.65,7.65-4.02,10.73-7.11,3.1-3.09,5.49-6.75,7.19-10.97,1.7-4.22,2.55-8.91,2.55-14.06s-.85-9.83-2.55-14.06c-1.69-4.22-4.07-7.88-7.1-10.97-3.04-3.09-6.62-5.46-10.74-7.11-4.12-1.65-8.6-2.47-13.44-2.47s-9.3.82-13.37,2.47c-4.07,1.65-7.65,4.01-10.73,7.11-3.09,3.09-5.48,6.75-7.19,10.97-1.69,4.23-2.55,8.91-2.55,14.06s.85,9.71,2.55,13.98c1.7,4.27,4.07,7.95,7.11,11.05,3.04,3.09,6.61,5.46,10.73,7.11,4.12,1.65,8.6,2.47,13.45,2.47Z"/>
      <path class="cls-2" d="M617.26,111.87V3.71h49.14c11.74,0,22.09,2.24,31.06,6.72,8.96,4.48,15.96,10.74,21.01,18.77,5.05,8.03,7.57,17.56,7.57,28.58s-2.52,20.42-7.57,28.51c-5.05,8.09-12.05,14.37-21.01,18.85-8.96,4.48-19.31,6.72-31.06,6.72h-49.14ZM642.3,91.32h22.87c7.21,0,13.47-1.36,18.77-4.09,5.3-2.73,9.42-6.62,12.36-11.66s4.4-10.97,4.4-17.77-1.46-12.85-4.4-17.85c-2.94-4.99-7.06-8.86-12.36-11.59-5.3-2.73-11.56-4.09-18.77-4.09h-22.87v67.06Z"/>
    </g>
  </g>
</svg>